<svg width="20" height="20" viewBox="0 0 20 20" fill="none" xmlns="http://www.w3.org/2000/svg">
<g clip-path="url(#clip0_239_30)">
<path d="M2.5 2.5H17.5V17.5H2.5V2.5Z" fill="#ECEFF1"/>
<path d="M10 11.5775L17.5 17.5V5.8075L10 11.5775Z" fill="#CFD8DC"/>
<path d="M18.125 2.5H17.5L10 8.4225L2.5 2.5H1.875C1.37772 2.5 0.900805 2.69754 0.549175 3.04917C0.197544 3.40081 0 3.87772 0 4.375L0 15.625C0 16.1223 0.197544 16.5992 0.549175 16.9508C0.900805 17.3025 1.37772 17.5 1.875 17.5H2.5V5.8075L10 11.5762L17.5 5.80625V17.5H18.125C18.6223 17.5 19.0992 17.3025 19.4508 16.9508C19.8025 16.5992 20 16.1223 20 15.625V4.375C20 3.87772 19.8025 3.40081 19.4508 3.04917C19.0992 2.69754 18.6223 2.5 18.125 2.5Z" fill="#F44336"/>
</g>
<defs>
<clipPath id="clip0_239_30">
<rect width="20" height="20" fill="white"/>
</clipPath>
</defs>
</svg>
