<svg width="108" height="108" viewBox="0 0 108 108" fill="none" xmlns="http://www.w3.org/2000/svg">
<path d="M29.0046 63.9977C26.822 64.001 24.6664 64.4805 22.6883 65.4028C20.7101 66.3251 18.9571 67.668 17.5515 69.3377C16.1459 71.0074 15.1216 72.9637 14.5502 75.0702C13.9787 77.1766 13.8738 79.3824 14.2428 81.5335C14.6117 83.6847 15.4457 85.7294 16.6865 87.525C17.9273 89.3205 19.545 90.8237 21.4266 91.9296C23.3083 93.0355 25.4087 93.7174 27.5811 93.9277C29.7535 94.1381 31.9457 93.8719 34.0046 93.1476" stroke="black" stroke-width="7.5" stroke-linecap="round" stroke-linejoin="round"/>
<path d="M15.3245 72.0227C12.3323 70.5822 9.7459 68.4192 7.79872 65.7291C5.85155 63.039 4.60488 59.9064 4.17125 56.6139C3.73761 53.3215 4.13065 49.9729 5.31489 46.8703C6.49913 43.7678 8.4373 41.009 10.9545 38.8428M11.1045 38.4378C9.46469 35.9841 8.74597 33.0293 9.07557 30.0965C9.40517 27.1637 10.7618 24.4422 12.9054 22.4136C15.0489 20.3851 17.8411 19.1803 20.7876 19.0127C23.734 18.8451 26.6448 19.7255 29.0046 21.4979M30.1946 21.8229C29.3969 20.1281 28.9904 18.2758 29.0049 16.4027C29.0195 14.5297 29.4548 12.6839 30.2787 11.0017C31.1026 9.31957 32.294 7.84407 33.7649 6.68431C35.2358 5.52454 36.9485 4.71016 38.7764 4.30135C40.6044 3.89254 42.5008 3.89976 44.3256 4.32248C46.1504 4.74519 47.8568 5.5726 49.3188 6.74353C50.7808 7.91446 51.961 9.39898 52.772 11.0874C53.5831 12.7757 54.0044 14.6248 54.0047 16.4979M54.0047 16.4979V93.9976M54.0047 16.4979C54.005 14.6248 54.4262 12.7757 55.2373 11.0874C56.0484 9.39898 57.2285 7.91446 58.6905 6.74353C60.1525 5.5726 61.8589 4.74519 63.6837 4.32248C65.5085 3.89976 67.4049 3.89254 69.2329 4.30135C71.0608 4.71016 72.7736 5.52454 74.2444 6.68431C75.7153 7.84407 76.9067 9.31957 77.7306 11.0017C78.5545 12.6839 78.9898 14.5297 79.0044 16.4027C79.0189 18.2758 78.6124 20.1281 77.8148 21.8229M54.0047 93.9976C54.0047 96.6498 52.9511 99.1933 51.0757 101.069C49.2003 102.944 46.6568 103.998 44.0046 103.998C41.3524 103.998 38.8089 102.944 36.9335 101.069C35.0582 99.1933 34.0046 96.6498 34.0046 93.9976M54.0047 93.9976C54.0047 96.6498 55.0582 99.1933 56.9336 101.069C58.809 102.944 61.3525 103.998 64.0047 103.998M54.0047 28.9979C54.0047 32.9761 55.585 36.7914 58.3981 39.6044C61.2111 42.4175 65.0265 43.9978 69.0047 43.9978M97.0548 38.8428C99.2378 40.7181 100.989 43.0435 102.189 45.6595C103.389 48.2754 104.008 51.1199 104.005 53.9978C104.005 57.5127 103.1 60.8177 101.505 63.6877M96.9048 38.4378C98.5446 35.9841 99.2633 33.0293 98.9337 30.0965C98.6041 27.1637 97.2475 24.4422 95.104 22.4136C92.9604 20.3851 90.1683 19.1803 87.2218 19.0127C84.2753 18.8451 81.3645 19.7255 79.0048 21.4979" stroke="black" stroke-width="7.5" stroke-linecap="round" stroke-linejoin="round"/>
<path d="M96.5001 96.4999L104 104M74 86.4999C74 89.8151 75.317 92.9945 77.6612 95.3387C80.0054 97.6829 83.1848 98.9999 86.5001 98.9999C89.8153 98.9999 92.9947 97.6829 95.3389 95.3387C97.6831 92.9945 99.0001 89.8151 99.0001 86.4999C99.0001 83.1848 97.6831 80.0053 95.3389 77.6611C92.9947 75.317 89.8153 74 86.5001 74C83.1848 74 80.0054 75.317 77.6612 77.6611C75.317 80.0053 74 83.1848 74 86.4999Z" stroke="#00A0D3" stroke-width="7.5" stroke-linecap="round" stroke-linejoin="round"/>
</svg>
