<svg width="119" height="116" viewBox="0 0 119 116" fill="none" xmlns="http://www.w3.org/2000/svg">
<path d="M58.0266 7H15.5266C13.2723 7 11.1103 7.89553 9.5162 9.48959C7.92214 11.0837 7.02661 13.2457 7.02661 15.5V77.8333C7.02661 80.0877 7.92214 82.2497 9.5162 83.8437C11.1103 85.4378 13.2723 86.3333 15.5266 86.3333H100.527C102.781 86.3333 104.943 85.4378 106.537 83.8437C108.131 82.2497 109.027 80.0877 109.027 77.8333V63.6667M58.0266 86.3333V109M29.6933 109H86.3599" stroke="black" stroke-width="12.8367" stroke-linecap="round" stroke-linejoin="round"/>
<path d="M94.8599 46.6667V35.3333M94.8599 18.3333V7M77.6842 36.75L87.4989 31.0833M102.221 22.5833L112.036 16.9167M77.6842 16.9167L87.4989 22.5833M102.221 31.0833L112.036 36.75" stroke="#00A0D3" stroke-width="12.8367" stroke-linecap="round" stroke-linejoin="round"/>
</svg>
