<svg width="92" height="114" viewBox="0 0 92 114" fill="none" xmlns="http://www.w3.org/2000/svg">
<path d="M2.89116 6.33031C4.50223 4.71924 6.68731 3.81415 8.9657 3.81415H33.8787C36.251 3.81415 38.1741 5.73724 38.1741 8.1095C38.1741 10.4818 36.251 12.4049 33.8787 12.4049H8.9657V105.184H67.3825V63.09C67.3825 60.7177 69.3056 58.7946 71.6778 58.7946C74.0501 58.7946 75.9732 60.7177 75.9732 63.09V105.184C75.9732 107.463 75.0681 109.648 73.457 111.259C71.846 112.87 69.6609 113.775 67.3825 113.775H8.9657C6.68731 113.775 4.50223 112.87 2.89116 111.259C1.28009 109.648 0.375 107.463 0.375 105.184V12.4049C0.375 10.1265 1.28009 7.94138 2.89116 6.33031Z" fill="black"/>
<path d="M38.1737 96.5938C41.2102 96.5938 43.6718 94.2861 43.6718 91.4394C43.6718 88.5927 41.2102 86.285 38.1737 86.285C35.1372 86.285 32.6757 88.5927 32.6757 91.4394C32.6757 94.2861 35.1372 96.5938 38.1737 96.5938Z" fill="black"/>
<path d="M86.2299 18.053C86.6101 16.719 86.6925 15.3177 86.4713 13.9483C86.2501 12.5789 85.7307 11.2748 84.9499 10.1283C84.1691 8.98178 83.1458 8.02084 81.9526 7.31344C80.7594 6.60605 79.4253 6.16947 78.0447 6.03459C77.4908 4.44515 76.4564 3.06722 75.0848 2.09153C73.7132 1.11583 72.0723 0.590633 70.389 0.588623C68.3889 0.595398 66.4629 1.34653 64.9863 2.6957C63.5097 1.34653 61.5837 0.595398 59.5835 0.588623C56.069 0.588623 53.0732 2.83347 51.9522 6.03189C50.5691 6.16339 49.232 6.59762 48.0356 7.30378C46.8392 8.00993 45.8129 8.97072 45.0294 10.118C44.2459 11.2652 43.7245 12.5708 43.5021 13.9422C43.2797 15.3135 43.3619 16.717 43.7427 18.053C42.0085 18.9757 40.5564 20.3506 39.5405 22.0318C38.5246 23.7131 37.9828 25.638 37.9725 27.6024C37.9725 30.5064 39.1287 33.2374 41.1385 35.2527C40.831 36.2762 40.6745 37.3391 40.6739 38.4079C40.6739 43.6945 44.4883 48.1058 49.6047 49.0351C50.3558 50.6951 51.5686 52.104 53.0986 53.0936C54.6285 54.0832 56.4108 54.6118 58.2328 54.6161C60.8775 54.6161 63.2682 53.5167 64.9863 51.7554C65.8632 52.66 66.9128 53.3793 68.0729 53.8707C69.2329 54.3621 70.4799 54.6156 71.7397 54.6161C73.5585 54.6128 75.338 54.0863 76.8659 53.0997C78.3939 52.113 79.6058 50.7077 80.3571 49.0513C81.8644 48.7856 83.2981 48.2032 84.5637 47.3425C85.8292 46.4819 86.8979 45.3626 87.699 44.0585C88.5001 42.7544 89.0155 41.2953 89.2112 39.7774C89.4068 38.2594 89.2783 36.7173 88.834 35.2527C89.8384 34.248 90.635 33.0552 91.1782 31.7425C91.7215 30.4299 92.0007 29.023 92 27.6024C91.9898 25.638 91.448 23.7131 90.4321 22.0318C89.4162 20.3506 87.9641 18.9757 86.2299 18.053ZM58.2328 49.2134C56.3122 49.2134 54.64 47.8519 54.2618 45.9771L53.6891 43.8106H51.4794C48.4998 43.8106 46.0767 41.3875 46.0767 38.4079C46.0767 37.457 46.3063 36.5655 46.7601 35.7578L47.9919 33.5535L45.8741 32.1758C45.109 31.6826 44.4795 31.0057 44.0431 30.2069C43.6066 29.408 43.3771 28.5127 43.3753 27.6024C43.3753 24.9631 45.3284 22.6751 47.919 22.2753L52.4924 21.5729L49.6317 17.9369C49.1222 17.2801 48.8268 16.4827 48.7853 15.6525C48.7438 14.8223 48.9583 13.9994 49.3997 13.2951C49.8412 12.5908 50.4883 12.0391 51.2535 11.7146C52.0187 11.39 52.8652 11.3084 53.6783 11.4806L56.8822 11.9533V8.69275C56.8822 7.9763 57.1668 7.28919 57.6734 6.78259C58.18 6.27598 58.8671 5.99137 59.5835 5.99137C60.3 5.99137 60.9871 6.27598 61.4937 6.78259C62.0003 7.28919 62.2849 7.9763 62.2849 8.69275V45.1613C62.2849 47.3954 60.4669 49.2134 58.2328 49.2134ZM84.0985 32.1731L81.9806 33.5508L83.2125 35.7551C83.6663 36.5655 83.8959 37.457 83.8959 38.4079C83.8959 41.3875 81.4728 43.8106 78.3581 43.8106H76.1484L75.7107 45.9771C75.5219 46.8909 75.0239 47.7117 74.3005 48.3012C73.5772 48.8906 72.6728 49.2128 71.7397 49.2134C69.5057 49.2134 67.6877 47.3954 67.6877 45.1613V8.69275C67.6877 7.20159 68.8979 5.99137 70.389 5.99137C71.8802 5.99137 73.0904 7.20159 73.0904 8.82782V12.0884L76.2942 11.4806C77.1074 11.3084 77.9539 11.39 78.7191 11.7146C79.4843 12.0391 80.1314 12.5908 80.5729 13.2951C81.0143 13.9994 81.2288 14.8223 81.1873 15.6525C81.1458 16.4827 80.8504 17.2801 80.3409 17.9369L77.4801 21.5756L82.0536 22.278C83.3191 22.4829 84.4708 23.1307 85.303 24.106C86.1352 25.0812 86.5939 26.3203 86.5973 27.6024C86.5973 29.4474 85.6626 31.1547 84.0985 32.1731Z" fill="#00A0D3"/>
</svg>
