<svg width="148" height="110" viewBox="0 0 148 110" fill="none" xmlns="http://www.w3.org/2000/svg">
<path d="M2.47948 101.158L2.47764 101.16C1.65617 101.981 1.25 103.015 1.25 104.206C1.25 105.395 1.65689 106.425 2.47764 107.246C3.30273 108.071 4.33814 108.481 5.53141 108.481L142.707 108.481L142.71 108.481C143.893 108.475 144.921 108.065 145.744 107.248C146.571 106.428 146.981 105.396 146.981 104.206C146.981 103.014 146.572 101.981 145.746 101.16C144.926 100.339 143.895 99.9321 142.707 99.9321H5.52436C4.33635 99.9321 3.30422 100.339 2.47948 101.158ZM126.17 94.3834H126.171C129.604 94.3784 132.508 93.2203 134.828 90.9002C137.148 88.58 138.304 85.6786 138.304 82.2497V13.3837C138.304 9.95426 137.145 7.05073 134.821 4.72618C132.501 2.40599 129.599 1.25 126.17 1.25H22.0607C18.6361 1.25 15.7352 2.40618 13.4108 4.72561C11.0857 7.04568 9.92698 9.9472 9.92698 13.3766V82.2426C9.92698 85.6765 11.0855 88.5804 13.4108 90.9007C15.7307 93.2251 18.6318 94.3834 22.0607 94.3834H126.17ZM126.17 85.8347H22.0607C21.2154 85.8347 20.4039 85.4884 19.6094 84.6939C18.8205 83.905 18.4757 83.096 18.4757 82.2497V13.3837C18.4757 12.5321 18.821 11.7211 19.6086 10.9332C20.4025 10.1436 21.2142 9.79872 22.0607 9.79872H126.17C127.017 9.79872 127.829 10.1438 128.623 10.9338C129.411 11.7222 129.755 12.5308 129.755 13.3766V82.2426C129.755 83.0946 129.41 83.9058 128.622 84.6939C127.827 85.4884 127.016 85.8347 126.17 85.8347Z" fill="black" stroke="black" stroke-width="1.5"/>
<path d="M85.2502 61.25L96.5003 72.5M51.4999 46.25C51.4999 51.2228 53.4754 55.9919 56.9917 59.5082C60.5081 63.0246 65.2772 65 70.2501 65C75.2229 65 79.9921 63.0246 83.5085 59.5082C87.0248 55.9919 89.0002 51.2228 89.0002 46.25C89.0002 41.2772 87.0248 36.5081 83.5085 32.9917C79.9921 29.4754 75.2229 27.5 70.2501 27.5C65.2772 27.5 60.5081 29.4754 56.9917 32.9917C53.4754 36.5081 51.4999 41.2772 51.4999 46.25Z" stroke="#00A0D3" stroke-width="9" stroke-linecap="round" stroke-linejoin="round"/>
</svg>
