<svg width="124" height="124" viewBox="0 0 124 124" fill="none" xmlns="http://www.w3.org/2000/svg">
<path d="M0 13.2857C0 9.76212 1.39974 6.38285 3.8913 3.8913C6.38285 1.39974 9.76212 0 13.2857 0H31C34.5236 0 37.9029 1.39974 40.3944 3.8913C42.886 6.38285 44.2857 9.76212 44.2857 13.2857V31C44.2857 34.5236 42.886 37.9029 40.3944 40.3944C37.9029 42.886 34.5236 44.2857 31 44.2857H13.2857C9.76212 44.2857 6.38285 42.886 3.8913 40.3944C1.39974 37.9029 0 34.5236 0 31V13.2857ZM13.2857 8.85714C12.1112 8.85714 10.9848 9.32372 10.1542 10.1542C9.32372 10.9848 8.85714 12.1112 8.85714 13.2857V31C8.85714 32.1745 9.32372 33.301 10.1542 34.1315C10.9848 34.962 12.1112 35.4286 13.2857 35.4286H31C32.1745 35.4286 33.301 34.962 34.1315 34.1315C34.962 33.301 35.4286 32.1745 35.4286 31V13.2857C35.4286 12.1112 34.962 10.9848 34.1315 10.1542C33.301 9.32372 32.1745 8.85714 31 8.85714H13.2857ZM17.7143 84.1429V53.1429H26.5714V84.1429C26.5714 85.3174 27.038 86.4438 27.8685 87.2743C28.699 88.1049 29.8255 88.5714 31 88.5714H53.1429V97.4286H31C27.4764 97.4286 24.0971 96.0288 21.6056 93.5373C19.114 91.0457 17.7143 87.6664 17.7143 84.1429ZM53.1429 17.7143V26.5714H84.1429C85.3174 26.5714 86.4438 27.038 87.2743 27.8685C88.1049 28.699 88.5714 29.8255 88.5714 31V53.1429H97.4286V31C97.4286 27.4764 96.0288 24.0971 93.5373 21.6056C91.0457 19.114 87.6664 17.7143 84.1429 17.7143H53.1429Z" fill="black"/>
<path d="M65.8913 65.8913C63.3997 68.3828 62 71.7621 62 75.2857V110.714C62 114.238 63.3997 117.617 65.8913 120.109C68.3828 122.6 71.7621 124 75.2857 124H110.714C114.238 124 117.617 122.6 120.109 120.109C122.6 117.617 124 114.238 124 110.714V75.2857C124 71.7621 122.6 68.3828 120.109 65.8913C117.617 63.3997 114.238 62 110.714 62H75.2857C71.7621 62 68.3828 63.3997 65.8913 65.8913Z" fill="#00A0D3"/>
<path d="M71.3204 71.3204C72.1842 70.4567 73.3556 69.9714 74.5772 69.9714H111.423C112.644 69.9714 113.816 70.4567 114.68 71.3204C115.543 72.1842 116.029 73.3556 116.029 74.5772V111.423C116.029 112.644 115.543 113.816 114.68 114.68C113.816 115.543 112.644 116.029 111.423 116.029H74.5772C73.3556 116.029 72.1842 115.543 71.3204 114.68C70.4567 113.816 69.9714 112.644 69.9714 111.423V74.5772C69.9714 73.3556 70.4567 72.1842 71.3204 71.3204Z" fill="white"/>
</svg>
