<svg width="110" height="110" viewBox="0 0 110 110" fill="none" xmlns="http://www.w3.org/2000/svg">
<path d="M44.9985 55.0001C44.9985 57.6523 46.0521 60.1958 47.9275 62.0712C49.8028 63.9466 52.3464 65.0001 54.9986 65.0001C57.6507 65.0001 60.1943 63.9466 62.0696 62.0712C63.945 60.1958 64.9986 57.6523 64.9986 55.0001C64.9986 52.3479 63.945 49.8044 62.0696 47.929C60.1943 46.0537 57.6507 45.0001 54.9986 45.0001C52.3464 45.0001 49.8028 46.0537 47.9275 47.929C46.0521 49.8044 44.9985 52.3479 44.9985 55.0001Z" stroke="#00A0D3" stroke-width="10" stroke-linecap="round" stroke-linejoin="round"/>
<path d="M42.9535 13.175L7.30339 83.5852C-1.25663 100.485 16.0984 110.835 25.7534 101.45L35.0535 92.4002C50.7635 77.1301 59.8485 77.4502 75.2486 92.9502L81.8936 99.6352C93.7536 111.57 111.219 100.025 102.774 83.5102L66.7985 13.175C61.2285 2.27499 48.4735 2.27499 42.9535 13.175Z" stroke="black" stroke-width="10" stroke-linecap="round" stroke-linejoin="round"/>
</svg>
